<svg width="25" height="27" viewBox="0 0 25 27" fill="none" xmlns="http://www.w3.org/2000/svg">
<path d="M12.4359 0.00891113C5.99532 0.00891113 0.776611 5.91467 0.776611 13.201C0.776611 20.4874 5.99532 26.3932 12.4359 26.3932C18.8732 26.3932 24.0953 20.4874 24.0953 13.201C24.0953 5.91467 18.8732 0.00891113 12.4359 0.00891113ZM19.0779 16.3808C19.0779 18.8291 17.3441 20.816 15.2074 20.816H9.66105C7.52442 20.816 5.79053 18.8291 5.79053 16.3808V10.0252C5.79053 7.57689 7.52442 5.59005 9.66105 5.59005H15.2074C17.3441 5.59005 19.0779 7.57689 19.0779 10.0252V16.3808Z" fill="white"/>
<path d="M14.4462 7.67847H10.4221C8.87249 7.67847 7.61304 9.11777 7.61304 10.8973V10.9951H11.248C11.5996 10.7722 12.0024 10.6431 12.4358 10.6431C12.8693 10.6431 13.272 10.7722 13.6236 10.9951H17.2586V10.8973C17.2552 9.11777 15.9992 7.67847 14.4462 7.67847ZM15.75 9.70835C15.5691 10.119 15.1356 10.2872 14.7772 10.0799C14.4189 9.87262 14.2721 9.3759 14.453 8.96523C14.6339 8.55456 15.0674 8.38638 15.4257 8.59367C15.7841 8.79705 15.9309 9.29768 15.75 9.70835Z" fill="white"/>
<path d="M14.8762 13.4356C14.8762 14.9804 13.784 16.232 12.4358 16.232C11.0876 16.232 9.99542 14.9804 9.99542 13.4356C9.99542 13.0523 10.0637 12.6846 10.1866 12.3483H7.61304V15.5045C7.61304 17.2802 8.86908 18.7234 10.4221 18.7234H14.4462C15.9957 18.7234 17.2552 17.2841 17.2552 15.5045V12.3483H14.6817C14.808 12.6846 14.8762 13.0523 14.8762 13.4356Z" fill="white"/>
</svg>
