<svg xmlns="http://www.w3.org/2000/svg" viewBox="0 0 180 150"><defs><style>.cls-1{fill:#fff;}.cls-2{fill:#fffdfd;}.cls-3{fill:none;}</style></defs><g id="Layer_1" data-name="Layer 1"><rect x="-65.07" y="0.5" width="311" height="149"/><path d="M245.43,1V149h-310V1h310m1-1h-312V150h312V0Z"/><path class="cls-1" d="M49.68,38.47a7.19,7.19,0,0,1,.23-1.91,4.06,4.06,0,0,1,.65-1.37,2.65,2.65,0,0,1,1-.81,3,3,0,0,1,1.29-.27,2.79,2.79,0,0,1,2.34,1.07A5.39,5.39,0,0,1,56,38.47a7.35,7.35,0,0,1-.23,1.93,4.1,4.1,0,0,1-.65,1.36,2.54,2.54,0,0,1-1,.82,3,3,0,0,1-1.29.27,2.7,2.7,0,0,1-2.34-1.12A5.54,5.54,0,0,1,49.68,38.47Zm1.56,0c0,.12,0,.23,0,.34s0,.22,0,.33l2.9-2.67a1.34,1.34,0,0,0-1.34-1,1.28,1.28,0,0,0-1.17.74A4.82,4.82,0,0,0,51.24,38.47Zm3.2,0c0-.13,0-.25,0-.37s0-.23,0-.34L51.5,40.44a1.36,1.36,0,0,0,1.34,1.09A1.29,1.29,0,0,0,54,40.8,4.9,4.9,0,0,0,54.44,38.47Z"/><path class="cls-1" d="M57.7,41.36h1.84V36.12L58,37.33l-.72-1L60,34.28H61v7.08h1.8v1.32H57.7Z"/><path class="cls-1" d="M64.08,38.47a7.19,7.19,0,0,1,.23-1.91A4.06,4.06,0,0,1,65,35.19a2.65,2.65,0,0,1,1-.81,3,3,0,0,1,1.29-.27,2.79,2.79,0,0,1,2.34,1.07,5.39,5.39,0,0,1,.82,3.29,7.35,7.35,0,0,1-.23,1.93,4.1,4.1,0,0,1-.65,1.36,2.54,2.54,0,0,1-1,.82,3,3,0,0,1-1.29.27,2.7,2.7,0,0,1-2.34-1.12A5.54,5.54,0,0,1,64.08,38.47Zm1.56,0c0,.12,0,.23,0,.34s0,.22,0,.33l2.9-2.67a1.34,1.34,0,0,0-1.34-1,1.3,1.3,0,0,0-1.18.74A5,5,0,0,0,65.64,38.47Zm3.2,0c0-.13,0-.25,0-.37s0-.23,0-.34L65.9,40.44a1.36,1.36,0,0,0,1.34,1.09,1.29,1.29,0,0,0,1.18-.73A4.9,4.9,0,0,0,68.84,38.47Z"/><path class="cls-1" d="M72.1,41.36h1.84V36.12l-1.59,1.21-.72-1,2.74-2.09h1v7.08h1.8v1.32H72.1Z"/><path class="cls-1" d="M78.48,38.47a7.19,7.19,0,0,1,.23-1.91,3.88,3.88,0,0,1,.65-1.37,2.57,2.57,0,0,1,1-.81,3,3,0,0,1,1.29-.27A2.79,2.79,0,0,1,84,35.18a5.39,5.39,0,0,1,.82,3.29,7.35,7.35,0,0,1-.23,1.93,4.1,4.1,0,0,1-.65,1.36,2.61,2.61,0,0,1-1,.82,3,3,0,0,1-1.29.27,2.7,2.7,0,0,1-2.34-1.12A5.54,5.54,0,0,1,78.48,38.47Zm1.56,0c0,.12,0,.23,0,.34s0,.22,0,.33L83,36.47a1.35,1.35,0,0,0-1.34-1,1.3,1.3,0,0,0-1.18.74A5,5,0,0,0,80,38.47Zm3.2,0c0-.13,0-.25,0-.37s0-.23,0-.34L80.3,40.44a1.36,1.36,0,0,0,1.34,1.09,1.29,1.29,0,0,0,1.18-.73A4.9,4.9,0,0,0,83.24,38.47Z"/><path class="cls-1" d="M50.5,55.76h1.84V50.52l-1.59,1.21-.72-1,2.74-2.09h1v7.08h1.8v1.32H50.5Z"/><path class="cls-1" d="M56.88,52.87A7.19,7.19,0,0,1,57.11,51a4.06,4.06,0,0,1,.65-1.37,2.65,2.65,0,0,1,1-.81A3,3,0,0,1,60,48.51a2.79,2.79,0,0,1,2.34,1.07,5.39,5.39,0,0,1,.82,3.29A7.35,7.35,0,0,1,63,54.8a4.1,4.1,0,0,1-.65,1.36,2.54,2.54,0,0,1-1,.82,3,3,0,0,1-1.29.27,2.7,2.7,0,0,1-2.34-1.12A5.54,5.54,0,0,1,56.88,52.87Zm1.56,0c0,.12,0,.23,0,.34s0,.22,0,.33l2.9-2.67a1.34,1.34,0,0,0-1.34-1,1.3,1.3,0,0,0-1.18.74A5,5,0,0,0,58.44,52.87Zm3.2,0c0-.13,0-.25,0-.37s0-.23,0-.34L58.7,54.84A1.36,1.36,0,0,0,60,55.93a1.29,1.29,0,0,0,1.18-.73A4.9,4.9,0,0,0,61.64,52.87Z"/><path class="cls-1" d="M64.9,55.76h1.84V50.52l-1.59,1.21-.72-1,2.74-2.09h1v7.08H70v1.32H64.9Z"/><path class="cls-1" d="M71.28,52.87A7.19,7.19,0,0,1,71.51,51a4.06,4.06,0,0,1,.65-1.37,2.65,2.65,0,0,1,1-.81,3,3,0,0,1,1.29-.27,2.79,2.79,0,0,1,2.34,1.07,5.39,5.39,0,0,1,.82,3.29,7.35,7.35,0,0,1-.23,1.93,4.1,4.1,0,0,1-.65,1.36,2.54,2.54,0,0,1-1,.82,3,3,0,0,1-1.29.27,2.7,2.7,0,0,1-2.34-1.12A5.54,5.54,0,0,1,71.28,52.87Zm1.56,0c0,.12,0,.23,0,.34s0,.22,0,.33l2.9-2.67a1.35,1.35,0,0,0-1.34-1,1.3,1.3,0,0,0-1.18.74A5,5,0,0,0,72.84,52.87Zm3.2,0c0-.13,0-.25,0-.37s0-.23,0-.34L73.1,54.84a1.36,1.36,0,0,0,1.34,1.09,1.29,1.29,0,0,0,1.18-.73A4.9,4.9,0,0,0,76,52.87Z"/><path class="cls-1" d="M79.3,55.76h1.84V50.52l-1.59,1.21-.72-1,2.74-2.09h1.05v7.08h1.8v1.32H79.3Z"/><path class="cls-1" d="M49.68,67.27a7.19,7.19,0,0,1,.23-1.91A3.91,3.91,0,0,1,50.56,64a2.47,2.47,0,0,1,1-.81,2.9,2.9,0,0,1,1.29-.27A2.78,2.78,0,0,1,55.18,64,5.41,5.41,0,0,1,56,67.27a7.35,7.35,0,0,1-.23,1.93,4,4,0,0,1-.65,1.36,2.54,2.54,0,0,1-1,.82,3,3,0,0,1-1.29.27,2.7,2.7,0,0,1-2.34-1.12A5.54,5.54,0,0,1,49.68,67.27Zm1.56,0c0,.12,0,.23,0,.34s0,.22,0,.33l2.9-2.67a1.34,1.34,0,0,0-1.34-1,1.28,1.28,0,0,0-1.17.74A4.82,4.82,0,0,0,51.24,67.27Zm3.2,0c0-.13,0-.25,0-.37s0-.23,0-.34L51.5,69.24a1.36,1.36,0,0,0,1.34,1.09A1.29,1.29,0,0,0,54,69.6,4.9,4.9,0,0,0,54.44,67.27Z"/><path class="cls-1" d="M57.7,70.16h1.84V64.92L58,66.13l-.72-1L60,63.08H61v7.08h1.8v1.32H57.7Z"/><path class="cls-1" d="M64.08,67.27a7.19,7.19,0,0,1,.23-1.91A3.91,3.91,0,0,1,65,64a2.47,2.47,0,0,1,1-.81,2.9,2.9,0,0,1,1.29-.27A2.78,2.78,0,0,1,69.58,64a5.41,5.41,0,0,1,.82,3.29,7.35,7.35,0,0,1-.23,1.93,4,4,0,0,1-.65,1.36,2.54,2.54,0,0,1-1,.82,3,3,0,0,1-1.29.27,2.7,2.7,0,0,1-2.34-1.12A5.54,5.54,0,0,1,64.08,67.27Zm1.56,0c0,.12,0,.23,0,.34s0,.22,0,.33l2.9-2.67a1.34,1.34,0,0,0-1.34-1,1.3,1.3,0,0,0-1.18.74A5,5,0,0,0,65.64,67.27Zm3.2,0c0-.13,0-.25,0-.37s0-.23,0-.34L65.9,69.24a1.36,1.36,0,0,0,1.34,1.09,1.29,1.29,0,0,0,1.18-.73A4.9,4.9,0,0,0,68.84,67.27Z"/><path class="cls-1" d="M72.1,70.16h1.84V64.92l-1.59,1.21-.72-1,2.74-2.09h1v7.08h1.8v1.32H72.1Z"/><path class="cls-1" d="M50.5,84.56h1.84V79.32l-1.59,1.21-.72-1,2.74-2.09h1v7.08h1.8v1.32H50.5Z"/><path class="cls-1" d="M56.88,81.67a7.19,7.19,0,0,1,.23-1.91,4.06,4.06,0,0,1,.65-1.37,2.65,2.65,0,0,1,1-.81A3,3,0,0,1,60,77.31a2.79,2.79,0,0,1,2.34,1.07,5.39,5.39,0,0,1,.82,3.29A7.35,7.35,0,0,1,63,83.6,4.1,4.1,0,0,1,62.32,85a2.54,2.54,0,0,1-1,.82,3,3,0,0,1-1.29.27,2.7,2.7,0,0,1-2.34-1.12A5.54,5.54,0,0,1,56.88,81.67Zm1.56,0c0,.12,0,.23,0,.34s0,.22,0,.33l2.9-2.67a1.34,1.34,0,0,0-1.34-1,1.3,1.3,0,0,0-1.18.74A5,5,0,0,0,58.44,81.67Zm3.2,0c0-.13,0-.25,0-.37s0-.23,0-.34L58.7,83.64A1.36,1.36,0,0,0,60,84.73,1.29,1.29,0,0,0,61.22,84,4.9,4.9,0,0,0,61.64,81.67Z"/><path class="cls-1" d="M64.9,84.56h1.84V79.32l-1.59,1.21-.72-1,2.74-2.09h1v7.08H70v1.32H64.9Z"/><path class="cls-1" d="M71.28,81.67a7.19,7.19,0,0,1,.23-1.91,4.06,4.06,0,0,1,.65-1.37,2.65,2.65,0,0,1,1-.81,3,3,0,0,1,1.29-.27,2.79,2.79,0,0,1,2.34,1.07,5.39,5.39,0,0,1,.82,3.29,7.35,7.35,0,0,1-.23,1.93A4.1,4.1,0,0,1,76.72,85a2.54,2.54,0,0,1-1,.82,3,3,0,0,1-1.29.27,2.7,2.7,0,0,1-2.34-1.12A5.54,5.54,0,0,1,71.28,81.67Zm1.56,0c0,.12,0,.23,0,.34s0,.22,0,.33l2.9-2.67a1.35,1.35,0,0,0-1.34-1,1.3,1.3,0,0,0-1.18.74A5,5,0,0,0,72.84,81.67Zm3.2,0c0-.13,0-.25,0-.37s0-.23,0-.34L73.1,83.64a1.36,1.36,0,0,0,1.34,1.09A1.29,1.29,0,0,0,75.62,84,4.9,4.9,0,0,0,76,81.67Z"/><path class="cls-1" d="M49.68,96.07a7.19,7.19,0,0,1,.23-1.91,4.06,4.06,0,0,1,.65-1.37,2.65,2.65,0,0,1,1-.81,3,3,0,0,1,1.29-.27,2.79,2.79,0,0,1,2.34,1.07A5.39,5.39,0,0,1,56,96.07,7.35,7.35,0,0,1,55.77,98a4.1,4.1,0,0,1-.65,1.36,2.54,2.54,0,0,1-1,.82,3,3,0,0,1-1.29.27,2.7,2.7,0,0,1-2.34-1.12A5.54,5.54,0,0,1,49.68,96.07Zm1.56,0c0,.12,0,.23,0,.34s0,.22,0,.33l2.9-2.67a1.34,1.34,0,0,0-1.34-1,1.28,1.28,0,0,0-1.17.74A4.82,4.82,0,0,0,51.24,96.07Zm3.2,0c0-.13,0-.25,0-.37s0-.23,0-.34L51.5,98a1.36,1.36,0,0,0,1.34,1.09A1.29,1.29,0,0,0,54,98.4,4.9,4.9,0,0,0,54.44,96.07Z"/><path class="cls-1" d="M57.7,99h1.84V93.72L58,94.93l-.72-1L60,91.88H61V99h1.8v1.32H57.7Z"/><path class="cls-1" d="M64.9,99h1.84V93.72l-1.59,1.21-.72-1,2.74-2.09h1V99H70v1.32H64.9Z"/><path class="cls-1" d="M71.28,96.07a7.19,7.19,0,0,1,.23-1.91,4.06,4.06,0,0,1,.65-1.37,2.65,2.65,0,0,1,1-.81,3,3,0,0,1,1.29-.27,2.79,2.79,0,0,1,2.34,1.07,5.39,5.39,0,0,1,.82,3.29A7.35,7.35,0,0,1,77.37,98a4.1,4.1,0,0,1-.65,1.36,2.54,2.54,0,0,1-1,.82,3,3,0,0,1-1.29.27,2.7,2.7,0,0,1-2.34-1.12A5.54,5.54,0,0,1,71.28,96.07Zm1.56,0c0,.12,0,.23,0,.34s0,.22,0,.33l2.9-2.67a1.35,1.35,0,0,0-1.34-1,1.3,1.3,0,0,0-1.18.74A5,5,0,0,0,72.84,96.07Zm3.2,0c0-.13,0-.25,0-.37s0-.23,0-.34L73.1,98a1.36,1.36,0,0,0,1.34,1.09,1.29,1.29,0,0,0,1.18-.73A4.9,4.9,0,0,0,76,96.07Z"/><path class="cls-1" d="M79.3,99h1.84V93.72l-1.59,1.21-.72-1,2.74-2.09h1.05V99h1.8v1.32H79.3Z"/><path class="cls-1" d="M49.68,110.47a7.19,7.19,0,0,1,.23-1.91,4.06,4.06,0,0,1,.65-1.37,2.65,2.65,0,0,1,1-.81,3.2,3.2,0,0,1,1.29-.27,2.79,2.79,0,0,1,2.34,1.07,5.39,5.39,0,0,1,.82,3.29,7.35,7.35,0,0,1-.23,1.93,4.1,4.1,0,0,1-.65,1.36,2.54,2.54,0,0,1-1,.82,3,3,0,0,1-1.29.27,2.7,2.7,0,0,1-2.34-1.12A5.54,5.54,0,0,1,49.68,110.47Zm1.56,0c0,.12,0,.24,0,.34s0,.22,0,.33l2.9-2.67a1.34,1.34,0,0,0-1.34-1,1.28,1.28,0,0,0-1.17.74A4.85,4.85,0,0,0,51.24,110.47Zm3.2,0c0-.13,0-.25,0-.37s0-.22,0-.34l-2.91,2.68a1.36,1.36,0,0,0,1.34,1.09A1.29,1.29,0,0,0,54,112.8,4.88,4.88,0,0,0,54.44,110.47Z"/><path class="cls-1" d="M57.7,113.36h1.84v-5.24L58,109.33l-.72-1L60,106.28H61v7.08h1.8v1.32H57.7Z"/><path class="cls-1" d="M64.08,110.47a7.19,7.19,0,0,1,.23-1.91,4.06,4.06,0,0,1,.65-1.37,2.65,2.65,0,0,1,1-.81,3.2,3.2,0,0,1,1.29-.27,2.79,2.79,0,0,1,2.34,1.07,5.39,5.39,0,0,1,.82,3.29,7.35,7.35,0,0,1-.23,1.93,4.1,4.1,0,0,1-.65,1.36,2.54,2.54,0,0,1-1,.82,3,3,0,0,1-1.29.27,2.7,2.7,0,0,1-2.34-1.12A5.54,5.54,0,0,1,64.08,110.47Zm1.56,0c0,.12,0,.24,0,.34s0,.22,0,.33l2.9-2.67a1.34,1.34,0,0,0-1.34-1,1.3,1.3,0,0,0-1.18.74A5,5,0,0,0,65.64,110.47Zm3.2,0c0-.13,0-.25,0-.37s0-.22,0-.34l-2.91,2.68a1.36,1.36,0,0,0,1.34,1.09,1.29,1.29,0,0,0,1.18-.73A4.88,4.88,0,0,0,68.84,110.47Z"/><path class="cls-1" d="M72.1,113.36h1.84v-5.24l-1.59,1.21-.72-1,2.74-2.09h1v7.08h1.8v1.32H72.1Z"/><path class="cls-1" d="M78.48,110.47a7.19,7.19,0,0,1,.23-1.91,3.88,3.88,0,0,1,.65-1.37,2.57,2.57,0,0,1,1-.81,3.2,3.2,0,0,1,1.29-.27A2.79,2.79,0,0,1,84,107.18a5.39,5.39,0,0,1,.82,3.29,7.35,7.35,0,0,1-.23,1.93,4.1,4.1,0,0,1-.65,1.36,2.61,2.61,0,0,1-1,.82,3,3,0,0,1-1.29.27,2.7,2.7,0,0,1-2.34-1.12A5.54,5.54,0,0,1,78.48,110.47Zm1.56,0c0,.12,0,.24,0,.34s0,.22,0,.33l2.9-2.67a1.35,1.35,0,0,0-1.34-1,1.3,1.3,0,0,0-1.18.74A5,5,0,0,0,80,110.47Zm3.2,0c0-.13,0-.25,0-.37s0-.22,0-.34l-2.91,2.68a1.36,1.36,0,0,0,1.34,1.09,1.29,1.29,0,0,0,1.18-.73A4.88,4.88,0,0,0,83.24,110.47Z"/></g><g id="Layer_2" data-name="Layer 2"><path class="cls-2" d="M91.38,32.49V63.9a11.1,11.1,0,1,1,0,22.2v31.41a42.51,42.51,0,0,0,0-85Z"/><path class="cls-3" d="M83.23,66.9c0-.11,0-.23,0-.34L80.3,69.24a1.42,1.42,0,0,0,1,1.05,10.75,10.75,0,0,1,1.89-2.81c0-.07,0-.13,0-.21S83.23,67,83.23,66.9Z"/><path class="cls-3" d="M81.63,64.23a1.3,1.3,0,0,0-1.18.74,5,5,0,0,0-.41,2.3c0,.12,0,.23,0,.34s0,.22,0,.33L83,65.27A1.35,1.35,0,0,0,81.63,64.23Z"/><path class="cls-1" d="M80.3,69.24l2.91-2.68c0,.11,0,.23,0,.34s0,.24,0,.37,0,.14,0,.21a10.64,10.64,0,0,1,1.5-1.35A4.36,4.36,0,0,0,84,64a2.78,2.78,0,0,0-2.34-1.06,2.9,2.9,0,0,0-1.29.27,2.41,2.41,0,0,0-1,.81,3.75,3.75,0,0,0-.65,1.36,7.19,7.19,0,0,0-.23,1.91,5.54,5.54,0,0,0,.81,3.26,2.54,2.54,0,0,0,1.54,1,9.77,9.77,0,0,1,.51-1.26A1.42,1.42,0,0,1,80.3,69.24Zm-.25-1.63c0-.11,0-.22,0-.34a5,5,0,0,1,.41-2.3,1.3,1.3,0,0,1,1.18-.74,1.35,1.35,0,0,1,1.34,1l-2.9,2.67C80.06,67.83,80.05,67.72,80.05,67.61Z"/><path class="cls-1" d="M80.73,78.12l-1.9,1.45.72,1,1.59-1.21v5.24H79.3v1.32h5.12V84.56h-1.8V81.81A11.23,11.23,0,0,1,80.73,78.12Z"/><path d="M81.64,70.33a1.29,1.29,0,0,0,1.18-.73,4.65,4.65,0,0,0,.41-2.12,10.75,10.75,0,0,0-1.89,2.81A1.45,1.45,0,0,0,81.64,70.33Z"/></g></svg>