<svg width="24" height="27" viewBox="0 0 24 27" fill="none" xmlns="http://www.w3.org/2000/svg">
<path d="M12 0C5.37119 0 0 5.90773 0 13.1965C0 20.4853 5.37119 26.3931 12 26.3931C18.6253 26.3931 24 20.4853 24 13.1965C24 5.90773 18.6253 0 12 0ZM19.2576 10.047L18.2775 11.3499L17.9789 12.7544C17.9789 12.7544 16.3841 25.5363 4.637 19.8985C4.637 19.8985 4.33841 19.5307 5.00234 19.2881L6.01405 19.2686L7.6089 18.9008L8.38876 18.3296C8.38876 18.3296 6.37939 18.31 6 15.7983L6.13349 15.3562L5.00585 13.9868C5.00585 13.9868 4.18384 12.6371 5.02342 12.2419L5.67682 12.3593L4.80562 10.3366L5.03044 8.88898C5.03044 8.88898 5.31499 6.90539 6.59719 9.06895C6.59719 9.06895 8.81733 10.6965 8.90164 10.7669C8.98244 10.8374 10.4895 11.3694 10.4895 11.3694L11.2974 11.5494C11.2974 11.5494 10.6756 8.74813 14.3361 7.4453C14.3361 7.4453 15.6815 7.14013 16.9988 8.38819L17.8946 8.02825C17.8946 8.02825 18.692 7.58615 18.9415 7.83263C19.1909 8.08302 18.1932 9.35847 18.1932 9.35847C18.1932 9.35847 19.9813 8.41166 19.2576 10.047Z" fill="white"/>
</svg>
